<mxfile host="65bd71144e">
    <diagram id="kyc4bT2bTeYtw7wpFhy_" name="Page-1">
        <mxGraphModel dx="1149" dy="899" grid="0" gridSize="10" guides="1" tooltips="1" connect="1" arrows="1" fold="1" page="1" pageScale="1" pageWidth="827" pageHeight="583" background="#1A1A1A" math="0" shadow="0">
            <root>
                <mxCell id="0"/>
                <mxCell id="1" parent="0"/>
                <mxCell id="2" value="CPU 6052" style="whiteSpace=wrap;html=1;fontFamily=Verdana;fontStyle=1;labelBackgroundColor=none;rounded=1;glass=0;shadow=0;fillColor=#f5f5f5;strokeColor=#FF3333;fillStyle=solid;fontColor=#333333;labelBorderColor=none;strokeWidth=2;" parent="1" vertex="1">
                    <mxGeometry x="110" y="120" width="120" height="60" as="geometry"/>
                </mxCell>
                <mxCell id="3" value="&lt;h1&gt;&lt;b&gt;NES&lt;/b&gt;&lt;/h1&gt;" style="text;align=center;html=1;verticalAlign=middle;whiteSpace=wrap;rounded=0;shadow=0;glass=0;labelBackgroundColor=none;sketch=0;fontFamily=Verdana;fillColor=none;fontColor=#F0F0F0;" parent="1" vertex="1">
                    <mxGeometry x="40" y="60" width="60" height="30" as="geometry"/>
                </mxCell>
                <mxCell id="4" value="" style="orthogonalLoop=1;jettySize=auto;html=1;fontFamily=Verdana;endArrow=none;endFill=0;edgeStyle=orthogonalEdgeStyle;entryX=0.5;entryY=1;entryDx=0;entryDy=0;startArrow=classic;startFill=1;strokeColor=#F0F0F0;strokeWidth=3;" parent="1" target="2" edge="1">
                    <mxGeometry width="80" relative="1" as="geometry">
                        <mxPoint x="761" y="220" as="sourcePoint"/>
                        <mxPoint x="160" y="230" as="targetPoint"/>
                        <Array as="points">
                            <mxPoint x="170" y="220"/>
                        </Array>
                    </mxGeometry>
                </mxCell>
                <mxCell id="5" value="&lt;font color=&quot;#990000&quot;&gt;2KB&lt;/font&gt; RAM" style="whiteSpace=wrap;html=1;fontFamily=Verdana;fontStyle=1;labelBackgroundColor=none;rounded=1;glass=0;shadow=0;fillColor=#f5f5f5;strokeColor=#FF3333;fillStyle=solid;fontColor=#333333;labelBorderColor=none;strokeWidth=2;" parent="1" vertex="1">
                    <mxGeometry x="280" y="120" width="120" height="60" as="geometry"/>
                </mxCell>
                <mxCell id="6" value="" style="edgeStyle=none;orthogonalLoop=1;jettySize=auto;html=1;fontFamily=Verdana;endArrow=none;endFill=0;exitX=0.5;exitY=1;exitDx=0;exitDy=0;strokeColor=#FFFFFF;strokeWidth=2;" parent="1" source="5" edge="1">
                    <mxGeometry width="80" relative="1" as="geometry">
                        <mxPoint x="300" y="70" as="sourcePoint"/>
                        <mxPoint x="340" y="220" as="targetPoint"/>
                        <Array as="points"/>
                    </mxGeometry>
                </mxCell>
                <mxCell id="8" value="&lt;b&gt;$0000-$1FFF&lt;/b&gt;" style="text;align=center;html=1;verticalAlign=middle;whiteSpace=wrap;rounded=0;shadow=0;glass=0;labelBackgroundColor=none;sketch=0;fontFamily=Verdana;fillColor=none;fontColor=#F0F0F0;" parent="1" vertex="1">
                    <mxGeometry x="310" y="80" width="60" height="30" as="geometry"/>
                </mxCell>
                <mxCell id="11" value="Internal 2KB RAM is divided into 4 parts, size 0x800, 3 of which are mirrors." style="text;align=center;html=1;verticalAlign=middle;whiteSpace=wrap;rounded=0;shadow=0;glass=0;labelBackgroundColor=none;sketch=0;fontFamily=Verdana;fillColor=none;fontColor=#F0F0F0;" parent="1" vertex="1">
                    <mxGeometry x="410" y="140" width="130" height="30" as="geometry"/>
                </mxCell>
                <mxCell id="15" value="BUS" style="text;align=center;html=1;verticalAlign=middle;whiteSpace=wrap;rounded=0;shadow=0;glass=0;labelBackgroundColor=none;sketch=0;fontFamily=Verdana;fontStyle=3;fillColor=none;fontColor=#F0F0F0;" parent="1" vertex="1">
                    <mxGeometry x="685" y="185" width="60" height="30" as="geometry"/>
                </mxCell>
                <mxCell id="16" value="PPU 2C02" style="whiteSpace=wrap;html=1;fontFamily=Verdana;fontStyle=1;labelBackgroundColor=none;rounded=1;glass=0;shadow=0;fillColor=#f5f5f5;strokeColor=#FF3333;fillStyle=solid;fontColor=#333333;labelBorderColor=none;strokeWidth=2;" parent="1" vertex="1">
                    <mxGeometry x="200" y="340" width="120" height="60" as="geometry"/>
                </mxCell>
                <mxCell id="17" value="" style="edgeStyle=none;orthogonalLoop=1;jettySize=auto;html=1;fontFamily=Verdana;startArrow=none;startFill=0;endArrow=none;endFill=0;entryX=0.5;entryY=0;entryDx=0;entryDy=0;verticalAlign=middle;strokeColor=#FFFFFF;strokeWidth=2;" parent="1" target="16" edge="1">
                    <mxGeometry width="80" relative="1" as="geometry">
                        <mxPoint x="260" y="221" as="sourcePoint"/>
                        <mxPoint x="378" y="470" as="targetPoint"/>
                        <Array as="points"/>
                    </mxGeometry>
                </mxCell>
                <mxCell id="18" value="&lt;b&gt;$2000-$3FFF&lt;/b&gt;" style="text;align=center;html=1;verticalAlign=middle;whiteSpace=wrap;rounded=0;shadow=0;glass=0;labelBackgroundColor=none;sketch=0;fontFamily=Verdana;fillColor=none;fontColor=#F0F0F0;" parent="1" vertex="1">
                    <mxGeometry x="230" y="310" width="60" height="30" as="geometry"/>
                </mxCell>
                <mxCell id="20" value="NES&amp;nbsp; PPU registers, left space contains mirros of these 8 bytes" style="text;align=center;html=1;verticalAlign=middle;whiteSpace=wrap;rounded=0;shadow=0;glass=0;labelBackgroundColor=none;sketch=0;fontFamily=Verdana;fillColor=none;fontColor=#F0F0F0;" parent="1" vertex="1">
                    <mxGeometry x="70" y="290" width="150" height="30" as="geometry"/>
                </mxCell>
                <mxCell id="22" value="&lt;b&gt;$2000-$2007&lt;br&gt;&lt;/b&gt;" style="text;align=center;html=1;verticalAlign=middle;whiteSpace=wrap;rounded=0;shadow=0;glass=0;labelBackgroundColor=none;sketch=0;fontFamily=Verdana;fillColor=none;fontColor=#F0F0F0;" parent="1" vertex="1">
                    <mxGeometry x="120" y="320" width="60" height="30" as="geometry"/>
                </mxCell>
                <mxCell id="23" value="" style="orthogonalLoop=1;jettySize=auto;html=1;fontFamily=Verdana;endArrow=none;endFill=0;edgeStyle=orthogonalEdgeStyle;startArrow=classic;startFill=1;entryX=0.5;entryY=1;entryDx=0;entryDy=0;strokeColor=#F0F0F0;strokeWidth=3;jumpStyle=none;" parent="1" target="16" edge="1">
                    <mxGeometry width="80" relative="1" as="geometry">
                        <mxPoint x="764" y="440" as="sourcePoint"/>
                        <mxPoint x="238" y="460" as="targetPoint"/>
                        <Array as="points">
                            <mxPoint x="260" y="440"/>
                        </Array>
                    </mxGeometry>
                </mxCell>
                <mxCell id="24" value="BUS" style="text;align=center;html=1;verticalAlign=middle;whiteSpace=wrap;rounded=0;shadow=0;glass=0;labelBackgroundColor=none;sketch=0;fontFamily=Verdana;fontStyle=3;fillColor=none;fontColor=#F0F0F0;" parent="1" vertex="1">
                    <mxGeometry x="685" y="409" width="60" height="30" as="geometry"/>
                </mxCell>
                <mxCell id="28" style="html=1;exitX=0.5;exitY=1;exitDx=0;exitDy=0;endArrow=none;endFill=0;strokeColor=#FFFFFF;strokeWidth=2;" parent="1" source="25" edge="1">
                    <mxGeometry relative="1" as="geometry">
                        <mxPoint x="390" y="441" as="targetPoint"/>
                    </mxGeometry>
                </mxCell>
                <mxCell id="25" value="&lt;font color=&quot;#990000&quot;&gt;8KB&lt;/font&gt; Pattern Table" style="whiteSpace=wrap;html=1;fontFamily=Verdana;fontStyle=1;labelBackgroundColor=none;rounded=1;glass=0;shadow=0;fillColor=#f5f5f5;strokeColor=#FF3333;fillStyle=solid;fontColor=#333333;labelBorderColor=none;strokeWidth=2;" parent="1" vertex="1">
                    <mxGeometry x="340" y="360" width="100" height="40" as="geometry"/>
                </mxCell>
                <mxCell id="54" style="edgeStyle=orthogonalEdgeStyle;html=1;exitX=0.75;exitY=1;exitDx=0;exitDy=0;entryX=0.5;entryY=0;entryDx=0;entryDy=0;strokeWidth=2;fontColor=#990000;endArrow=none;endFill=0;startArrow=classicThin;startFill=1;dashed=1;" edge="1" parent="1" source="26" target="51">
                    <mxGeometry relative="1" as="geometry"/>
                </mxCell>
                <mxCell id="26" value="&lt;font color=&quot;#990000&quot;&gt;2KB&lt;/font&gt; Name Table" style="whiteSpace=wrap;html=1;fontFamily=Verdana;fontStyle=1;labelBackgroundColor=none;rounded=1;glass=0;shadow=0;fillColor=#f5f5f5;strokeColor=#FF3333;fillStyle=solid;fontColor=#333333;labelBorderColor=none;strokeWidth=2;" parent="1" vertex="1">
                    <mxGeometry x="460" y="360" width="100" height="40" as="geometry"/>
                </mxCell>
                <mxCell id="27" value="Palettes" style="whiteSpace=wrap;html=1;fontFamily=Verdana;fontStyle=1;labelBackgroundColor=none;rounded=1;glass=0;shadow=0;fillColor=#f5f5f5;strokeColor=#FF3333;fillStyle=solid;fontColor=#333333;labelBorderColor=none;strokeWidth=2;" parent="1" vertex="1">
                    <mxGeometry x="590" y="360" width="100" height="40" as="geometry"/>
                </mxCell>
                <mxCell id="29" style="edgeStyle=none;html=1;endArrow=none;endFill=0;exitX=0.5;exitY=1;exitDx=0;exitDy=0;strokeColor=#FFFFFF;strokeWidth=2;" parent="1" source="26" edge="1">
                    <mxGeometry relative="1" as="geometry">
                        <mxPoint x="510" y="441" as="targetPoint"/>
                        <mxPoint x="515" y="409" as="sourcePoint"/>
                        <Array as="points"/>
                    </mxGeometry>
                </mxCell>
                <mxCell id="30" style="edgeStyle=none;html=1;endArrow=none;endFill=0;exitX=0.5;exitY=1;exitDx=0;exitDy=0;strokeColor=#FFFFFF;strokeWidth=2;" parent="1" source="27" edge="1">
                    <mxGeometry relative="1" as="geometry">
                        <mxPoint x="640" y="438" as="targetPoint"/>
                        <mxPoint x="524.5" y="410" as="sourcePoint"/>
                        <Array as="points"/>
                    </mxGeometry>
                </mxCell>
                <mxCell id="31" value="&lt;b&gt;$0000-$1FFF&lt;/b&gt;" style="text;align=center;html=1;verticalAlign=middle;whiteSpace=wrap;rounded=0;shadow=0;glass=0;labelBackgroundColor=none;sketch=0;fontFamily=Verdana;fillColor=none;fontColor=#F0F0F0;" parent="1" vertex="1">
                    <mxGeometry x="360" y="320" width="60" height="30" as="geometry"/>
                </mxCell>
                <mxCell id="32" value="&lt;b&gt;$2000-$2FFF&lt;/b&gt;" style="text;align=center;html=1;verticalAlign=middle;whiteSpace=wrap;rounded=0;shadow=0;glass=0;labelBackgroundColor=none;sketch=0;fontFamily=Verdana;fillColor=none;fontColor=#F0F0F0;" parent="1" vertex="1">
                    <mxGeometry x="480" y="320" width="60" height="30" as="geometry"/>
                </mxCell>
                <mxCell id="33" value="&lt;b&gt;$3F00-$3F1F&lt;/b&gt;" style="text;align=center;html=1;verticalAlign=middle;whiteSpace=wrap;rounded=0;shadow=0;glass=0;labelBackgroundColor=none;sketch=0;fontFamily=Verdana;fillColor=none;fontColor=#F0F0F0;" parent="1" vertex="1">
                    <mxGeometry x="610" y="320" width="60" height="30" as="geometry"/>
                </mxCell>
                <mxCell id="34" value="&lt;b&gt;$2008-$3FFF&lt;/b&gt;" style="text;align=center;html=1;verticalAlign=middle;whiteSpace=wrap;rounded=0;shadow=0;glass=0;labelBackgroundColor=none;sketch=0;fontFamily=Verdana;fillColor=none;fontColor=#F0F0F0;" parent="1" vertex="1">
                    <mxGeometry x="120" y="430" width="60" height="30" as="geometry"/>
                </mxCell>
                <mxCell id="35" value="Mirror of front 8 bytes registers" style="text;align=center;html=1;verticalAlign=middle;whiteSpace=wrap;rounded=0;shadow=0;glass=0;labelBackgroundColor=none;sketch=0;fontFamily=Verdana;fillColor=none;fontColor=#F0F0F0;" parent="1" vertex="1">
                    <mxGeometry x="70" y="400" width="150" height="30" as="geometry"/>
                </mxCell>
                <mxCell id="37" value="Cartridge" style="whiteSpace=wrap;html=1;fontFamily=Verdana;fontStyle=1;labelBackgroundColor=none;rounded=1;glass=0;shadow=0;fillColor=#f5f5f5;strokeColor=#FF3333;fillStyle=solid;fontColor=#333333;labelBorderColor=none;strokeWidth=2;" parent="1" vertex="1">
                    <mxGeometry x="340" y="240" width="110" height="40" as="geometry"/>
                </mxCell>
                <mxCell id="38" value="" style="edgeStyle=none;orthogonalLoop=1;jettySize=auto;html=1;fontFamily=Verdana;endArrow=none;endFill=0;strokeColor=#FFFFFF;entryX=0.5;entryY=0;entryDx=0;entryDy=0;strokeWidth=2;" parent="1" target="37" edge="1">
                    <mxGeometry width="80" relative="1" as="geometry">
                        <mxPoint x="395" y="220" as="sourcePoint"/>
                        <mxPoint x="392" y="243" as="targetPoint"/>
                        <Array as="points"/>
                    </mxGeometry>
                </mxCell>
                <mxCell id="40" value="&lt;b&gt;$4200-$FFFF&lt;/b&gt;" style="text;align=center;html=1;verticalAlign=middle;whiteSpace=wrap;rounded=0;shadow=0;glass=0;labelBackgroundColor=none;sketch=0;fontFamily=Verdana;fillColor=none;fontColor=#F0F0F0;" parent="1" vertex="1">
                    <mxGeometry x="365" y="285" width="60" height="30" as="geometry"/>
                </mxCell>
                <mxCell id="42" style="edgeStyle=none;jumpStyle=none;html=1;exitX=0;exitY=0.5;exitDx=0;exitDy=0;entryX=1;entryY=0.5;entryDx=0;entryDy=0;strokeWidth=2;fontColor=#4D4D4D;endArrow=classicThin;endFill=1;startArrow=none;startFill=0;strokeColor=#99CCFF;" parent="1" source="41" target="37" edge="1">
                    <mxGeometry relative="1" as="geometry"/>
                </mxCell>
                <mxCell id="41" value="&lt;font&gt;Mapper&lt;/font&gt;" style="whiteSpace=wrap;html=1;fontFamily=Verdana;fontStyle=1;labelBackgroundColor=none;rounded=1;glass=0;shadow=0;fillColor=#b1ddf0;strokeColor=#66B2FF;fillStyle=solid;labelBorderColor=none;strokeWidth=2;fontColor=#4D4D4D;" parent="1" vertex="1">
                    <mxGeometry x="513" y="240" width="110" height="40" as="geometry"/>
                </mxCell>
                <mxCell id="43" value="&lt;font face=&quot;Verdana&quot;&gt;&lt;span&gt;&lt;b&gt;&lt;i&gt;Extend&lt;/i&gt;&lt;/b&gt;&lt;/span&gt;&lt;/font&gt;" style="text;strokeColor=none;align=center;fillColor=none;html=1;verticalAlign=middle;whiteSpace=wrap;rounded=0;fontColor=#E6E6E6;fontStyle=0;" parent="1" vertex="1">
                    <mxGeometry x="453" y="230" width="60" height="30" as="geometry"/>
                </mxCell>
                <mxCell id="44" value="&lt;b&gt;&lt;i&gt;&lt;font style=&quot;&quot; face=&quot;Verdana&quot; color=&quot;#66b2ff&quot;&gt;VRAM&lt;/font&gt;&lt;/i&gt;&lt;/b&gt;" style="text;align=center;html=1;verticalAlign=middle;whiteSpace=wrap;rounded=0;labelBackgroundColor=none;" parent="1" vertex="1">
                    <mxGeometry x="445" y="405" width="60" height="30" as="geometry"/>
                </mxCell>
                <mxCell id="46" style="edgeStyle=none;html=1;exitX=0.5;exitY=1;exitDx=0;exitDy=0;fontColor=#333333;endArrow=none;endFill=0;strokeWidth=2;" edge="1" parent="1" source="45">
                    <mxGeometry relative="1" as="geometry">
                        <mxPoint x="609" y="219.20001220703125" as="targetPoint"/>
                    </mxGeometry>
                </mxCell>
                <mxCell id="45" value="APU" style="whiteSpace=wrap;html=1;fontFamily=Verdana;fontStyle=1;labelBackgroundColor=none;rounded=1;glass=0;shadow=0;fillColor=#f5f5f5;strokeColor=#FF3333;fillStyle=solid;fontColor=#333333;labelBorderColor=none;strokeWidth=2;" vertex="1" parent="1">
                    <mxGeometry x="570" y="149" width="78" height="34" as="geometry"/>
                </mxCell>
                <mxCell id="50" style="edgeStyle=none;html=1;exitX=0.5;exitY=0;exitDx=0;exitDy=0;strokeWidth=2;fontColor=#333333;endArrow=none;endFill=0;" edge="1" parent="1" source="47">
                    <mxGeometry relative="1" as="geometry">
                        <mxPoint x="332" y="441.6000061035156" as="targetPoint"/>
                    </mxGeometry>
                </mxCell>
                <mxCell id="47" value="OAM(sprites)" style="whiteSpace=wrap;html=1;fontFamily=Verdana;fontStyle=1;labelBackgroundColor=none;rounded=1;glass=0;shadow=0;fillColor=#f5f5f5;strokeColor=#FF3333;fillStyle=solid;fontColor=#333333;labelBorderColor=none;strokeWidth=2;" vertex="1" parent="1">
                    <mxGeometry x="278" y="471" width="107" height="34" as="geometry"/>
                </mxCell>
                <mxCell id="51" value="&lt;font&gt;&lt;font color=&quot;#990000&quot;&gt;64 Bytes&lt;/font&gt; Attribute Table&lt;/font&gt;" style="whiteSpace=wrap;html=1;fontFamily=Verdana;fontStyle=1;labelBackgroundColor=none;rounded=1;glass=0;shadow=0;fillColor=#b1ddf0;strokeColor=none;fillStyle=solid;labelBorderColor=none;strokeWidth=2;fontColor=#4D4D4D;" vertex="1" parent="1">
                    <mxGeometry x="473" y="466" width="123" height="44" as="geometry"/>
                </mxCell>
            </root>
        </mxGraphModel>
    </diagram>
</mxfile>